<?xml version="1.0" standalone="no"?>
<!DOCTYPE svg PUBLIC "-//W3C//DTD SVG 1.1//EN" "http://www.w3.org/Graphics/SVG/1.1/DTD/svg11.dtd" >
<svg xmlns="http://www.w3.org/2000/svg" xmlns:xlink="http://www.w3.org/1999/xlink" version="1.1">
<metadata>
Created by FontForge 20201107 at Thu Jan 15 11:17:29 2026
 By KUS
Copyright (C) 2023 by original authors @ fontello.com
</metadata>
<defs>
<font id="fa-brands-400" horiz-adv-x="875" >
  <font-face 
    font-family="fa-brands-400"
    font-weight="400"
    font-stretch="normal"
    units-per-em="1000"
    panose-1="2 0 5 3 0 0 0 0 0 0"
    ascent="850"
    descent="-150"
    bbox="-0.130435 -156 1250 850"
    underline-thickness="0"
    underline-position="10"
    unicode-range="U+E49B-F431"
  />
<missing-glyph horiz-adv-x="1000" 
 />
    <glyph glyph-name=".notdef" horiz-adv-x="1000" 
 />
    <glyph glyph-name="meta" unicode="&#xe49b;" horiz-adv-x="1250" 
d="M1250 223q0 -89 -25 -154.5t-73.5 -100.5t-116.5 -35q-62 0 -108 25t-93 84q-43 52 -106 158l-61 102q-8 12 -21.5 35t-20.5 34q-24 -41 -61 -106l-31 -56q-64 -112 -114 -173q-49 -58 -96 -82q-42 -21 -96 -21q-70 0 -121.5 35t-78.5 99.5t-27 150.5q0 104 27.5 202
t76.5 175t113 120q68 46 142.5 46t140.5 -40q68 -41 142 -135q62 83 117 124q67 51 138 51t137 -43q63 -41 112 -116t76 -172q28 -99 28 -207v0zM561 468q-41 60 -74.5 94.5t-65.5 49.5q-30 14 -64 14q-58 0 -111 -61q-50 -58 -80.5 -153.5t-30.5 -196.5q0 -70 25.5 -108.5
t71.5 -38.5q30 0 55 16q27 17 61 60q31 41 86 126l34 54q44 68 93 144v0zM1038 68q46 0 68.5 37.5t22.5 108.5q0 119 -32 222q-32 99 -86 158q-56 60 -122 60q-48 0 -93 -38q-42 -35 -93 -114q15 -21 45 -69l86 -142q62 -101 90 -140q35 -48 59 -65.5t55 -17.5v0z" />
    <glyph glyph-name="x-twitter" unicode="&#xe61b;" horiz-adv-x="1000" 
d="M760 750h138l-301 -344l354 -469h-277l-218 285l-248 -285h-138l322 369l-340 444h285l196 -260zM712 20h76l-493 652h-82z" />
    <glyph glyph-name="twitter-square" unicode="&#xf081;" 
d="M781 782h-687q-39 0 -66.5 -27.5t-27.5 -66.5v-688q0 -39 27.5 -66.5t66.5 -27.5h687q39 0 66.5 27.5t27.5 66.5v688q0 39 -27.5 66.5t-66.5 27.5zM686 471v-16q0 -88 -42 -170q-45 -87 -123 -138q-87 -57 -199 -57q-108 0 -197 58q20 -2 31 -2q44 0 84.5 14.5t74.5 40.5
q-42 1 -75 25.5t-45 63.5q31 -5 58 2q-45 9 -74 44.5t-29 81.5v1q27 -15 58 -16q-27 18 -42 46t-15 61v0v0q0 37 18 65q48 -60 116 -94q69 -36 148 -40q-9 42 7 79q15 35 47 56.5t71 21.5q27 0 51.5 -10.5t41.5 -29.5q42 7 81 30q-7 -22 -21.5 -40t-34.5 -30q38 4 74 20
q-24 -36 -64 -67z" />
    <glyph glyph-name="facebook-square" unicode="&#xf082;" 
d="M875 688v-688q0 -39 -27.5 -66.5t-66.5 -27.5h-166v347h118l17 132h-135v84q0 32 12 46q15 18 53 18h70v118q-12 2 -37 4q-32 2 -65 2q-77 0 -123 -45q-47 -47 -47 -130v-98h-119v-132h119v-346h-384q-39 0 -66.5 27.5t-27.5 66.5v688q0 39 27.5 66.5t66.5 27.5h687
q39 0 66.5 -27.5t27.5 -66.5z" />
    <glyph glyph-name="linkedin" unicode="&#xf08c;" 
d="M813 782h-751q-25 0 -43.5 -19t-18.5 -45v-748q0 -26 18.5 -45t43.5 -19h751q25 0 43.5 19t18.5 45v748q0 26 -18.5 45t-43.5 19zM265 32h-130v417h130v-417zM200 506q-31 0 -53.5 22t-22.5 53t22.5 53.5t53.5 22.5t53 -22.5t22 -53.5t-22 -53t-53 -22zM751 32h-130v203
q0 33 -3 50q-4 28 -17 42q-16 18 -47 18q-46 0 -64 -33q-14 -24 -14 -74v-206h-130v417h124v-57h2q15 28 45 46q34 21 78 21q63 0 99 -26q32 -24 46 -71q11 -39 11 -102v-228z" />
    <glyph glyph-name="twitter" unicode="&#xf099;" horiz-adv-x="1000" 
d="M897 548q1 -9 1 -27q0 -104 -38 -205q-39 -106 -112 -188q-78 -88 -183 -137q-114 -53 -250 -53q-86 0 -166 23.5t-149 68.5q26 -3 50 -3q70 0 135.5 23t118.5 65q-67 1 -119.5 41t-72.5 101q20 -3 39 -3q30 0 54 7q-47 9 -84 38t-58.5 71.5t-21.5 91.5v3q41 -24 92 -26
q-42 27 -66.5 72.5t-24.5 97.5q0 56 28 104q77 -95 185 -151q111 -57 237 -64q-5 25 -5 47q0 56 27.5 103t74.5 74.5t103 27.5q44 0 83 -17.5t67 -47.5q71 14 130 50q-11 -36 -34.5 -65t-55.5 -48q57 6 118 32q-42 -62 -103 -106z" />
    <glyph glyph-name="pinterest" unicode="&#xf0d2;" horiz-adv-x="967" 
d="M969 344q0 -99 -38 -189q-37 -87 -104 -153.5t-154 -103.5q-90 -38 -189 -38q-75 0 -143 21q18 29 33 60q20 39 27 67l30 116q12 -24 43.5 -40t67.5 -16q72 0 130 41q57 39 89.5 108t32.5 152q0 79 -40 144q-39 63 -107.5 99.5t-151.5 36.5q-101 0 -176 -42
q-69 -39 -107 -107q-37 -66 -37 -144q0 -36 12 -74.5t34 -68.5q23 -32 52 -45q13 -6 16 7l14 54q2 8 -4 14q-15 20 -25 50.5t-10 60.5q0 54 26.5 102.5t74.5 76.5q51 31 117 31q59 0 105 -25t72 -70t26 -102q0 -64 -20 -115t-55 -79t-78 -28q-23 0 -41.5 12t-27 32t-2.5 44
q5 21 18 65q11 35 15 51q7 27 7 45q0 29 -16 48.5t-45 19.5q-24 0 -44.5 -15.5t-32 -42.5t-11.5 -60q0 -19 4 -38q2 -13 6 -24l4 -9l-25 -106q-26 -111 -31 -135q-12 -48 -2 -139q-90 35 -160 102.5t-108 156.5q-40 91 -40 191t38 190q37 87 104 153.5t154 103.5
q90 38 188 38t188 -38q87 -37 154.5 -103.5t104.5 -153.5q38 -90 38 -189z" />
    <glyph glyph-name="google-plus-square" unicode="&#xf0d4;" 
d="M781 782h-687q-39 0 -66.5 -27.5t-27.5 -66.5v-688q0 -39 27.5 -66.5t66.5 -27.5h687q39 0 66.5 27.5t27.5 66.5v688q0 39 -27.5 66.5t-66.5 27.5zM320 149q-53 0 -98 26t-71 71t-26 98t26 98t71 71t98 26q77 0 131 -51l-53 -51q-13 13 -29 20q-22 10 -48 10
q-33 0 -61 -16.5t-44 -45t-16 -61.5t16.5 -61.5t44 -45.5t60.5 -17q35 0 62 16q21 12 35 34q11 18 13 35h-111v67h185q3 -15 3 -33q0 -55 -23.5 -98.5t-66 -67.5t-98.5 -24zM750 309h-57v-57h-57v57h-56v57h56v56h57v-56h57v-57z" />
    <glyph glyph-name="google-plus-g" unicode="&#xf0d5;" horiz-adv-x="1250" 
d="M754 398q6 -28 6 -63q0 -106 -45 -189.5t-126 -129.5q-83 -47 -189 -47q-102 0 -189 51q-85 50 -135 135q-51 87 -51 189t51 189q50 85 135 135q87 51 189 51q74 0 139 -26q62 -25 112 -72l-102 -98q-24 24 -57 39q-42 19 -92 19q-63 0 -116.5 -32t-84.5 -86.5
t-31 -118.5t31 -118.5t84.5 -86.5t116.5 -32q68 0 119 30q42 24 68 66q21 33 26 66h-213v129h354zM1116 385v109h-109v-109h-109v-109h109v-109h109v109h109v109h-109z" />
    <glyph glyph-name="linkedin-in" unicode="&#xf0e1;" 
d="M196 -31h-181v584h181v-584zM105 633q-28 0 -52.5 14.5t-38.5 38.5t-14 53t14 53t38 38t53 14t53 -14t38 -38t14 -53t-14 -53t-38.5 -38.5t-52.5 -14.5zM875 -31h-181v284q0 47 -4 70q-6 39 -24 60q-23 25 -66 25q-65 0 -90 -46q-19 -35 -19 -104v-289h-181v584h174v-79
h2q20 38 62 64q49 30 110 30q87 0 138 -37q45 -33 63 -99q16 -55 16 -142v-321z" />
    <glyph glyph-name="youtube" unicode="&#xf167;" horiz-adv-x="1125" 
d="M1074 602q-10 35 -35 60t-60 35q-37 10 -145 15q-77 5 -182 6l-89 1l-90 -1q-105 -1 -182 -6q-108 -5 -145 -15q-35 -10 -60 -35.5t-34 -59.5q-10 -37 -16 -104q-4 -48 -6 -107l-1 -48l1 -48q2 -58 6 -106q6 -67 16 -104q9 -34 34 -59t61 -35t144 -15q77 -5 182 -6l90 -1
l89 1q105 1 182 6q108 5 145 15q35 10 60 35t35 59q10 37 15 104q5 48 6 106l1 48l-1 48q-1 59 -6 107q-5 67 -15 104zM453 185v317l279 -159z" />
    <glyph glyph-name="xing" unicode="&#xf168;" horiz-adv-x="750" 
d="M318 434q-1 -1 -6 -10q-58 -104 -131 -231q-15 -25 -35 -25h-127q-11 0 -16.5 9t0.5 19l134 237q1 0 1 0.5t-1 0.5l-85 148q-7 11 -1.5 19t17.5 8h127q21 0 36 -24zM747 754l-281 -494v-1l179 -325q6 -11 1 -19.5t-18 -8.5h-127q-23 0 -35 24l-181 329l283 499
q14 24 34 24h129q11 0 16.5 -9t-0.5 -19z" />
    <glyph glyph-name="instagram" unicode="&#xf16d;" 
d="M438 569q-61 0 -112.5 -30.5t-82 -82t-30.5 -112.5t30.5 -112.5t82 -81.5t112.5 -30t112.5 30t81.5 81.5t30 112.5t-30 112.5t-81.5 82t-112.5 30.5zM438 198q-40 0 -73.5 19.5t-53 53.5t-19.5 73t19.5 73t53 53.5t73.5 19.5t73.5 -19.5t53 -53t19.5 -73.5t-19.5 -73.5
t-53.5 -53t-73 -19.5zM724 578q0 -22 -15.5 -37.5t-37.5 -15.5t-37 15.5t-15 37.5t15 37t37 15t37.5 -15t15.5 -37zM872 525q-2 57 -17 99q-17 48 -53.5 84t-84.5 53q-42 15 -99 18q-54 3 -180.5 3t-180.5 -3q-58 -3 -99 -18q-48 -17 -84 -53t-53 -84q-16 -42 -18 -99
q-3 -54 -3 -180.5t3 -180.5q2 -57 17 -99q17 -48 54 -85t85 -53q40 -15 98 -17q54 -4 180.5 -4t180.5 4q57 2 99 17q48 17 84.5 53.5t53.5 84.5q15 42 17 99q3 54 3 180t-3 181zM779 86q-11 -28 -32.5 -50t-50.5 -33q-33 -13 -107 -17q-42 -2 -121 -1h-60q-79 -1 -121 1
q-75 4 -107 17q-29 11 -50.5 32.5t-32.5 50.5q-13 33 -17 107q-2 42 -1 121v60q-1 79 1 121q4 75 17 107q11 29 32.5 50.5t50.5 32.5q32 13 106 17q42 2 122 1h60q79 1 121 -1q74 -4 107 -17q29 -11 50.5 -32.5t32.5 -50.5q13 -32 17 -106q2 -42 1 -122v-60q1 -79 -1 -121
q-4 -74 -17 -107z" />
    <glyph glyph-name="flickr" unicode="&#xf16e;" 
d="M781 782h-687q-39 0 -66.5 -27.5t-27.5 -66.5v-688q0 -39 27.5 -66.5t66.5 -27.5h687q39 0 66.5 27.5t27.5 66.5v688q0 39 -27.5 66.5t-66.5 27.5zM282 221q-34 0 -62 16.5t-45 45t-17 62.5t17 62.5t45 45t62 16.5t62 -16.5t45 -45t17 -62.5t-16.5 -62.5t-45 -45
t-62.5 -16.5zM593 221q-34 0 -62.5 16.5t-45 45t-16.5 62.5t16.5 62.5t45 45t62.5 16.5t62.5 -16.5t45 -45t16.5 -62.5t-17 -62.5t-45 -45t-62 -16.5z" />
    <glyph glyph-name="tumblr" unicode="&#xf173;" horiz-adv-x="625" 
d="M605 -94q-22 -24 -70 -41q-56 -21 -120 -21q-109 0 -179 49q-58 40 -86 109q-22 55 -22 117v281h-93q-8 0 -14 5.5t-6 13.5v133q0 11 6.5 19.5t16.5 12.5q82 29 126 100q33 56 38 128q3 32 32 32h138q8 0 14 -5.5t6 -13.5v-225h162q8 0 13.5 -6t5.5 -14v-159
q0 -8 -5.5 -14t-13.5 -6h-163v-260q0 -34 15.5 -56t45.5 -26.5t72 12.5q15 7 25 5t14 -16l43 -126q3 -10 3 -15q1 -8 -4 -13z" />
    <glyph glyph-name="skype" unicode="&#xf17e;" 
d="M830 259q9 49 9 85q0 109 -55 203q-53 90 -144 143q-93 55 -202 55q-44 0 -86 -9q-28 22 -62 34t-71 12q-60 0 -110 -29.5t-79.5 -79.5t-29.5 -110q0 -37 12 -71t34 -62q-10 -47 -10 -86q0 -109 55 -203q53 -90 144 -143q93 -55 202 -55q44 0 86 9q28 -21 62 -33t71 -12
q59 0 109.5 29.5t80 79.5t29.5 109q0 37 -12 71.5t-33 62.5zM449 80q-63 0 -117 17t-86 46.5t-32 63.5q0 25 14 42q16 18 44 18q18 0 33 -11q10 -6 27 -24q25 -26 42 -36q30 -17 70 -17q37 0 59.5 14.5t22.5 36.5q0 16 -8 25.5t-25 15.5q-11 4 -39 11l-42 11q-70 16 -100 27
q-48 19 -71 47q-27 34 -27 88.5t33 92.5q30 33 81 51q46 15 100 15t104 -13.5t80 -37.5q32 -26 32 -58q0 -26 -16 -44t-43 -18q-17 0 -31 8q-8 5 -23 19q-21 19 -35 26q-25 13 -58 13q-39 0 -60.5 -11t-21.5 -33q0 -17 10.5 -26.5t34.5 -16.5q15 -5 59 -15l31 -7
q78 -17 119 -45q58 -40 58 -106q0 -55 -33 -95q-29 -37 -81 -56q-48 -18 -105 -18z" />
    <glyph glyph-name="vk" unicode="&#xf189;" horiz-adv-x="1125" 
d="M1065 614q12 43 -35 43h-115q-36 0 -50 -33l-18 -40q-24 -50 -50 -93q-37 -61 -74 -102q-20 -20 -31.5 -28t-21.5 -8q-7 0 -13 8.5t-6 24.5v228q0 22 -7 32.5t-25 10.5h-181q-13 0 -21 -8.5t-8 -18.5q0 -7 4 -14q2 -5 10 -14q13 -16 19 -30q10 -22 12 -54v-170
q0 -27 -4.5 -35.5t-16.5 -8.5q-19 0 -54 43.5t-71 111.5q-38 74 -65 153q-9 25 -20 35t-32 10h-115q-23 0 -32 -10q-8 -8 -8 -23q0 -21 15 -68q20 -62 56 -133q46 -90 111 -181q70 -100 165 -156q93 -54 186 -54q35 0 53 5t24 15q5 8 5 24v49q-1 48 0 62q2 20 8 26t22 6
t38 -13q31 -17 77 -61q23 -23 55 -58q29 -33 41 -42q18 -13 39 -13h115q25 0 36 12t4 36q-12 37 -74 108q-33 39 -89 95l-14 15q-12 15 -11 27q1 8 11 24q3 3 38 54q42 63 71 113q40 68 47 98z" />
    <glyph glyph-name="google" unicode="&#xf1a0;" horiz-adv-x="953" 
d="M953 333q0 -137 -59 -244.5t-164 -167.5q-108 -61 -246 -61q-132 0 -245 66q-109 64 -173 173q-66 113 -66 245t66 245q64 109 173 173q113 66 245 66q96 0 180 -33q81 -32 145 -93l-132 -127q-63 60 -150 72q-82 11 -161.5 -23.5t-128.5 -105.5q-53 -76 -53 -174
q0 -83 41 -154q40 -70 108 -110q70 -42 151 -42q88 0 154 38q54 32 87 85q27 43 34 86h-275v167h462q7 -44 7 -81z" />
    <glyph glyph-name="reddit" unicode="&#xf1a1;" horiz-adv-x="1000" 
d="M394 247q-20 0 -34.5 14t-14.5 34t14.5 34.5t34.5 14.5t34 -14.5t14 -34t-14 -34t-34 -14.5zM984 344q0 -132 -66 -245q-64 -109 -173 -173q-113 -66 -245 -66t-245 66q-109 64 -173 173q-66 113 -66 245t66 245q64 109 173 173q113 66 245 66t245 -66q109 -64 173 -173
q66 -113 66 -245zM726 425q-13 0 -25.5 -5.5t-20.5 -14.5q-34 23 -76 37q-45 14 -93 15l34 153l109 -25q0 -20 14 -34t34 -14t34 14.5t14 34.5t-14 34.5t-34 14.5q-14 0 -26 -7.5t-18 -19.5l-119 26q-4 1 -8 -1t-6 -7l-37 -169q-48 -2 -91 -15.5t-76 -36.5q-20 20 -47 20
q-24 0 -41 -14.5t-22 -35.5t4 -41.5t31 -31.5q-3 -15 -3 -30q0 -51 34.5 -93.5t93.5 -67.5t129 -25t129.5 25t94.5 67.5t35 93.5q0 18 -4 30q22 11 30.5 31.5t3.5 42t-22 35.5t-41 14zM591 198q-17 -17 -55 -24q-36 -6 -73.5 0.5t-53.5 23.5q-4 3 -8.5 3t-8 -3.5t-3.5 -8.5
t3 -8q22 -22 66 -30q42 -8 84 0q44 8 66 30q4 3 4 8t-4 8.5t-8.5 3.5t-8.5 -3zM606 344q-20 0 -34 -14.5t-14 -34t14.5 -34t34 -14.5t34 14t14.5 34t-14 34.5t-35 14.5z" />
    <glyph glyph-name="yelp" unicode="&#xf1e9;" horiz-adv-x="745" 
d="M82 375l194 -95q18 -9 23.5 -27.5t-3.5 -35t-28 -21.5l-210 -52q-20 -5 -36.5 6.5t-18.5 31.5q-10 83 17 167q7 19 25.5 26.5t36.5 -0.5zM168 -93q72 -49 155 -62q20 -4 35.5 9t16.5 33l8 217q0 20 -13.5 33t-32.5 13t-32 -15l-145 -161q-13 -15 -11 -35t19 -32zM452 122
l115 -184q11 -17 30.5 -20t35.5 10q66 54 103 132q8 18 0 36.5t-27 24.5l-206 67q-19 6 -35 -3.5t-21.5 -27.5t5.5 -35zM741 380q-34 78 -98 136q-15 13 -35 10t-31 -19l-122 -179q-11 -17 -6 -35.5t21 -28.5t35 -4l208 59q19 6 27.5 24.5t0.5 36.5zM119 785q-17 -8 -23 -27
t4 -35l203 -353q11 -19 31.5 -21.5t36.5 9.5t16 34v407q0 20 -14.5 33t-33.5 12q-119 -11 -220 -59z" />
    <glyph glyph-name="whatsapp" unicode="&#xf232;" 
d="M744 654q-62 62 -141 95t-166 33q-118 0 -218 -59q-98 -58 -156 -156q-59 -101 -59 -218t58 -218l-62 -225l230 61q47 -26 100 -39.5t107 -13.5v0q118 0 220 59q99 58 158 156q60 102 60 219q0 86 -35 166q-34 78 -96 140zM437 -13q-48 0 -94.5 13t-88.5 37l-13 8
l-137 -36l37 133l-9 14q-55 89 -55 192q0 98 49 182q48 81 130 129q84 49 182 49q72 0 137.5 -27t116.5 -78q52 -53 81 -117q29 -67 29 -138q0 -98 -50 -182q-49 -82 -132 -130q-85 -49 -183 -49zM635 257q-10 6 -37 19q-30 14 -37 16q-9 4 -14 3.5t-10 -8.5
q-13 -18 -35 -43q-5 -5 -10 -5.5t-13 3.5q-55 27 -82 49q-37 29 -66 79q-4 8 -2.5 12.5t8.5 11.5q17 17 26 36q5 8 -1 19q-2 4 -24 57l-9 23q-5 12 -11 16q-4 2 -11 3h-23q-16 0 -29 -14l-1 -1q-14 -14 -22 -29q-15 -26 -15 -59t19 -72q10 -20 24 -40l2 -3q26 -37 57 -70
q61 -64 127 -92q49 -21 78 -26q25 -5 52 -1q18 3 41 17q26 17 32 34.5t8 33.5q1 14 -1.5 18.5t-18.5 11.5z" />
    <glyph glyph-name="tripadvisor" unicode="&#xf262;" horiz-adv-x="1125" 
d="M1033 495l92 100h-204q-77 53 -166 81q-94 30 -192 30t-192 -30q-90 -28 -169 -82l2 1h-204l92 -100q-43 -39 -66.5 -92.5t-23.5 -113.5q0 -77 37.5 -141.5t101.5 -102.5q65 -38 142 -38q53 0 104 20q47 19 86 54h-1l91 -98l90 98q38 -35 87 -55q50 -20 104 -20
q76 0 142 38q63 38 101 101q38 66 38 142v1q0 60 -25 115q-24 53 -67 92v0zM281 97q-52 0 -95.5 25.5t-69 69t-25.5 95.5t25.5 95.5t69 69.5t95.5 26t95.5 -26t69.5 -69.5t26 -95.5v0q0 -52 -26 -95.5t-69.5 -69t-95.5 -25.5v0zM563 293q0 61 -28 117q-27 54 -75.5 96
t-108.5 65q100 43 211 43t215 -44l-3 1q-60 -23 -108 -65t-75 -96q-28 -56 -28 -117zM844 97v0q-52 0 -96 25.5t-69.5 69t-25.5 95.5t25.5 95.5t69.5 69.5t96 26t95.5 -26t69 -69.5t25.5 -95.5t-25.5 -95.5t-69 -69t-95.5 -25.5v0zM281 387v0q-27 0 -49.5 -13.5t-36 -36.5
t-13.5 -50t13.5 -49.5t36 -36t49.5 -13.5t50 13.5t36.5 36t13.5 49.5v1q0 27 -13.5 49.5t-36 36t-49.5 13.5h-1zM844 387q-27 0 -50 -13.5t-36.5 -36.5t-13.5 -50t13.5 -50t36 -36t50 -13t50 13.5t36 36t13.5 49.5v0q0 27 -13.5 50t-36 36.5t-49.5 13.5v0z" />
    <glyph glyph-name="vimeo-v" unicode="&#xf27d;" 
d="M875 544q-6 -127 -179 -350q-179 -232 -302 -232q-76 0 -129 141l-29 108q-31 116 -44 159q-21 69 -39 100q-20 34 -43 34q-10 0 -69 -42l-41 54l58 52q77 69 111 95q56 42 88 45q102 10 126 -140q23 -143 38 -211q18 -79 36.5 -106t44.5 -9q24 16 64 79q54 85 59 132
q4 41 -16 60q-17 16 -50 14q-27 -1 -58 -14q65 212 247 206q134 -5 127 -175z" />
    <glyph glyph-name="facebook-f" unicode="&#xf39e;" horiz-adv-x="514" 
d="M422 678h94v159q-59 7 -137 7q-68 0 -120 -27.5t-80 -79.5q-29 -53 -29 -128v-140h-150v-178h150v-447h183v447h144l23 178h-167v123q0 43 17 62q20 24 72 24z" />
    <glyph glyph-name="telegram-plane" unicode="&#xf3fe;" 
d="M873 651l-133 -622q-7 -33 -25.5 -41.5t-46.5 7.5l-202 148l-97 -93q-9 -10 -16 -14q-10 -6 -24 -6l14 205l373 337q8 7 5.5 11.5t-11.5 4t-19 -7.5l-461 -291l-198 62q-22 7 -29 18.5t2.5 23.5t35.5 22l776 299q18 7 33 2t21.5 -22t1.5 -43z" />
    <glyph glyph-name="youtube-square" unicode="&#xf431;" 
d="M365 449l186 -105l-186 -106v211zM875 688v-688q0 -39 -27.5 -66.5t-66.5 -27.5h-687q-39 0 -66.5 27.5t-27.5 66.5v688q0 39 27.5 66.5t66.5 27.5h687q39 0 66.5 -27.5t27.5 -66.5zM793 343q0 16 -1 32q-1 39 -3 71q-4 45 -10.5 69t-23.5 41t-40.5 23.5t-95.5 10.5
q-52 2 -121 3l-60 1l-60 -1q-70 -1 -121 -3q-73 -4 -96.5 -10.5t-40.5 -23.5t-23.5 -41t-10.5 -69q-2 -32 -3 -71l-1 -32l1 -32q1 -39 3 -71q4 -44 10.5 -68t23.5 -40.5t40.5 -23t96.5 -10.5q51 -2 121 -3l60 -1l60 1q69 1 121 3q72 4 95.5 10.5t40.5 23t23 39.5q7 25 11 69
q2 32 3 71z" />
    <glyph glyph-name="uniF409" unicode="&#xf409;" horiz-adv-x="1000" 
d="M866.925 752.344v0q62.5 -52.7344 91.7969 -173.828q27.3438 -119.141 5.85938 -306.641q-15.625 -109.375 -60.5469 -167.969q-46.875 -56.6406 -95.7031 -80.0781q-48.8281 -21.4844 -78.125 -27.3438q-7.8125 -1.95312 -11.7188 -1.95312
q-11.7188 -5.85938 -93.75 -17.5781q-82.0312 -13.6719 -203.125 -5.85938q-31.25 -33.2031 -58.5938 -64.4531q-7.8125 -9.76562 -15.625 -17.5781q-15.625 -19.5312 -31.25 -31.25t-35.1562 -5.85938q-19.5312 7.8125 -23.4375 27.3438t-1.95312 21.4844v101.562v0
q-115.234 35.1562 -166.016 113.281q-48.8281 78.125 -56.6406 167.969q-9.76562 89.8438 -5.85938 156.25q-1.95312 197.266 97.6562 306.641q68.3594 58.5938 160.156 80.0781q89.8438 21.4844 160.156 21.4844q68.3594 1.95312 72.2656 1.95312
q166.016 -5.85938 250 -41.0156v0q82.0312 -35.1562 99.6094 -56.6406zM894.269 289.453v0q17.5781 158.203 -3.90625 261.719q-21.4844 105.469 -76.1719 150.391q-13.6719 17.5781 -85.9375 44.9219q-74.2188 29.2969 -214.844 31.25v0q-1.95312 1.95312 -62.5 1.95312
q-58.5938 -1.95312 -134.766 -19.5312q-78.125 -17.5781 -134.766 -66.4062q-85.9375 -91.7969 -83.9844 -255.859v-11.7188q-1.95312 -56.6406 3.90625 -130.859q7.8125 -72.2656 46.875 -136.719q41.0156 -62.5 134.766 -91.7969v0v0v-41.0156v-76.1719v-50.7812
q1.95312 -27.3438 21.4844 -9.76562l46.875 52.7344q31.25 37.1094 58.5938 68.3594q25.3906 31.25 27.3438 33.2031q103.516 -5.85938 173.828 5.85938t82.0312 15.625q3.90625 1.95312 11.7188 1.95312v0q23.4375 3.90625 62.5 21.4844v0q41.0156 17.5781 78.125 64.4531
v0q35.1562 46.875 48.8281 136.719zM622.784 447.656q-1.95312 -13.6719 -11.7188 -13.6719v0q-11.7188 0 -13.6719 11.7188q-1.95312 64.4531 -64.4531 66.4062q-11.7188 1.95312 -11.7188 13.6719q1.95312 11.7188 13.6719 11.7188q82.0312 -5.85938 87.8906 -89.8438v0z
M661.847 424.219q1.95312 64.4531 -35.1562 107.422v0q-39.0625 41.0156 -113.281 48.8281q-11.7188 1.95312 -11.7188 13.6719q1.95312 9.76562 13.6719 11.7188q85.9375 -7.8125 128.906 -58.5938q44.9219 -50.7812 42.9688 -123.047q-1.95312 -11.7188 -11.7188 -11.7188
q-11.7188 0 -13.6719 13.6719v-1.95312zM753.644 398.828q-1.95312 -11.7188 -11.7188 -11.7188v0q-11.7188 0 -13.6719 11.7188q-1.95312 119.141 -70.3125 183.594q-66.4062 62.5 -166.016 62.5q-11.7188 1.95312 -11.7188 13.6719t11.7188 11.7188
q111.328 0 185.547 -72.2656q72.2656 -70.3125 76.1719 -199.219v0zM732.159 207.422v0q-15.625 -29.2969 -42.9688 -50.7812q-27.3438 -23.4375 -58.5938 -15.625v1.95312q-33.2031 9.76562 -91.7969 41.0156t-107.422 68.3594q-48.8281 39.0625 -83.9844 83.9844
q-29.2969 37.1094 -60.5469 89.8438q-54.6875 111.328 -50.7812 109.375q-7.8125 31.25 13.6719 58.5938q23.4375 25.3906 52.7344 42.9688v0q27.3438 13.6719 46.875 -7.8125q1.95312 -1.95312 13.6719 -15.625q11.7188 -15.625 21.4844 -27.3438
q15.625 -25.3906 29.2969 -46.875q13.6719 -35.1562 -7.8125 -52.7344l-23.4375 -17.5781q-7.8125 -7.8125 -9.76562 -17.5781v-9.76562q0 -1.95312 13.6719 -35.1562t50.7812 -72.2656q35.1562 -39.0625 99.6094 -58.5938q1.95312 0 9.76562 1.95312
q9.76562 0 17.5781 9.76562l19.5312 23.4375q15.625 21.4844 50.7812 5.85938q48.8281 -25.3906 89.8438 -62.5q21.4844 -19.5312 7.8125 -46.875v0z" />
  </font>
</defs>
</svg>
